<?xml version="1.0" encoding="utf-8"?>
<!-- Generator: Adobe Illustrator 25.3.1, SVG Export Plug-In . SVG Version: 6.00 Build 0)  -->
<svg version="1.0" id="レイヤー_1" xmlns="http://www.w3.org/2000/svg" xmlns:xlink="http://www.w3.org/1999/xlink" x="0px"
	 y="0px" width="250px" height="100px" viewBox="0 0 250 100" enable-background="new 0 0 250 100" xml:space="preserve">
<g>
	<path d="M58.03,41.18l-9.94,27.79V41.18h-5.9l-6.84,20.37c-0.41,1.23-0.78,2.73-0.86,3.4h-0.11c-0.07-0.67-0.49-2.17-0.9-3.4
		l-6.84-20.37h-5.87c0.11,2.9,0.18,5.84,0.23,8.82c0.02,1.72,0.04,3.42,0.04,5.1c-1.13,0.28-5.15,1.1-7.75-0.6
		c-1.24-0.81-2-2.1-2.26-3.84c0.5-0.61,0.72-1.43,0.59-2.23c-0.05-0.31-0.17-0.6-0.31-0.87l1.45-2.02l-2.43-1.75l-1.42,1.97
		c-0.59-0.15-1.07-0.1-1.43,0.19c-0.76,0.6-0.62,1.88-0.51,2.45l-2.24,3.17l2.43,1.75l1.5-2.09c0.43,0.23,0.9,0.28,1.37,0.12
		c0.03-0.01,0.06-0.02,0.1-0.04c0.38,1.79,1.25,3.14,2.62,4.03c1.43,0.93,3.18,1.21,4.75,1.21c1.49,0,2.81-0.25,3.54-0.42
		c0,4.84-0.09,9.58-0.26,14.19h3.7V54.15c0-2.65-0.15-5.94-0.19-8h0.15c0.26,1.16,0.78,2.88,1.08,3.74l6.91,20.44h3.96l6.95-20.55
		c0.22-0.71,0.75-2.62,0.9-3.62h0.15c-0.07,2.09-0.26,5.9-0.26,7.92v16.26h7.81l3.03-8.3h11.55l2.95,8.3h4.41L63.45,41.18H58.03z
		 M6.93,51.92l-0.82-0.59l1.18-1.68c0.13,0.29,0.32,0.6,0.6,0.93L6.93,51.92z M10.15,50.14c-0.16,0.15-0.71,0.59-1.29,0
		C8.03,49.32,8,48.53,8,48.5l-0.01-0.12c-0.13-0.55-0.17-1.44,0.11-1.66c0.06-0.04,0.14-0.07,0.24-0.07c0.22,0,0.55,0.1,0.93,0.29
		c0.77,0.38,1.25,0.97,1.36,1.64C10.73,49.17,10.55,49.75,10.15,50.14z M9.86,46.14l0.69-0.96l0.81,0.58l-0.7,0.97
		C10.44,46.51,10.17,46.31,9.86,46.14z M56.16,58.37c0.41-1.27,4.33-12,4.52-13.15h0.11c0.19,1.16,4.15,11.92,4.52,13.15H56.16z"/>
	<polygon points="92.45,41.18 70.81,41.18 70.81,44.84 79.45,44.84 79.45,70.33 83.82,70.33 83.82,44.84 92.45,44.84 	"/>
	<path d="M105.08,53.89l-4.37-1.42c-3.06-1.01-4.26-2.28-4.26-4.19c0-2.28,2.06-4.18,5.49-4.18c3.06,0,5.34,1.46,6.43,4.56
		l3.25-2.32c-1.57-4-4.82-5.83-9.83-5.83c-5.83,0-9.49,3.62-9.49,7.96c0,3.96,1.98,5.98,6.58,7.62l4.22,1.46
		c3.48,1.2,5.04,2.65,5.04,5.19c0,2.65-2.24,4.52-6.02,4.52c-3.44,0-6.43-2.47-7.66-5.98l-3.25,2.17c1.49,4.52,5.31,7.55,10.95,7.55
		c6.61,0,10.31-3.29,10.31-8.67C112.48,57.88,109.79,55.49,105.08,53.89z"/>
	<path d="M132.07,60.43c0,4.48-2.62,6.88-6.73,6.88c-4.15,0-6.65-2.43-6.65-6.88V41.18h-4.33v19.66c0,6.35,4.48,10.16,10.99,10.16
		c6.32,0,10.91-3.77,10.91-10.16V41.18h-4.18V60.43z"/>
	<path d="M154.6,61.55c-0.41,1.23-0.78,2.73-0.86,3.4h-0.11c-0.08-0.67-0.49-2.17-0.9-3.4l-6.84-20.37h-5.87v29.15h3.7V54.15
		c0-2.65-0.15-5.94-0.19-8h0.15c0.26,1.16,0.78,2.88,1.08,3.74l6.91,20.44h3.96l6.95-20.55c0.22-0.71,0.75-2.62,0.9-3.62h0.15
		c-0.07,2.09-0.26,5.9-0.26,7.92v16.26h3.96V41.18h-5.9L154.6,61.55z"/>
	<path d="M181.66,40.51c-8.07,0-12.78,6.73-12.78,15.21c0,8.59,4.71,15.28,12.78,15.28c8.11,0,12.78-6.69,12.78-15.28
		C194.44,47.27,189.77,40.51,181.66,40.51z M181.66,67.26c-5.04,0-8.45-4.78-8.45-11.55c0-6.8,3.51-11.47,8.45-11.47
		c5.08,0,8.41,4.67,8.41,11.47C190.06,62.48,186.66,67.26,181.66,67.26z"/>
	<path d="M215.25,41.18h-2.04v-5.86c0-0.94-0.78-2.71-3.71-2.71s-3.71,1.77-3.71,2.71v5.86h-1.59V35.5c0-0.94-0.78-2.71-3.71-2.71
		s-3.71,1.77-3.71,2.71v5.68h-3.17v3.66h8.63v25.49h4.37V44.84h8.63V41.18z M202.79,41.18h-4.58l0-4.6
		c0.18,0.25,0.46,0.42,0.79,0.42c0.55,0,1-0.45,1-1c0-0.55-0.45-1-1-1c-0.32,0-0.59,0.16-0.77,0.39c0.07-0.33,0.42-1.18,2.27-1.18
		c2.17,0,2.29,1.17,2.29,1.29V41.18z M211.8,41.18h-4.58l0-4.59C207.4,36.83,207.68,37,208,37c0.55,0,1-0.45,1-1c0-0.55-0.45-1-1-1
		c-0.33,0-0.6,0.17-0.78,0.41v-0.07c0.01-0.13,0.12-1.31,2.29-1.31s2.29,1.17,2.29,1.29V41.18z"/>
</g>
<path d="M235.58,59.71c4.6-2.34,7.16-7.64,7.16-13.99c0-8.45-4.67-15.21-12.78-15.21c-8.07,0-12.78,6.73-12.78,15.21
	c0,5.95,2.26,10.98,6.33,13.52v2.66c0,0.33-0.27,0.6-0.6,0.6c-0.76,0-1.42,0.54-1.57,1.29l-0.14,0.71c-0.02,0.1-0.08,0.18-0.16,0.23
	c-0.08,0.05-0.18,0.07-0.27,0.05c-1.76-0.4-2.97-0.28-3.61,0.36c-0.78,0.78-1.04,2.42-1.12,3.67c-0.02,0.31,0.09,0.61,0.3,0.83
	c0.21,0.23,0.51,0.36,0.82,0.36h6.73c0.62,0,1.12-0.5,1.12-1.12V63h-0.94c0.27-0.29,0.44-0.67,0.44-1.1v-2.11
	c1.59,0.78,3.41,1.21,5.45,1.21c1.7,0,3.24-0.31,4.62-0.85v1.86c0,0.33-0.27,0.6-0.6,0.6c-0.76,0-1.42,0.54-1.57,1.29l-0.22,1.08
	c-1.2-0.32-3.08-0.61-3.97,0.28c-0.78,0.78-1.04,2.42-1.12,3.67c-0.02,0.31,0.09,0.61,0.3,0.83c0.21,0.23,0.51,0.35,0.82,0.35h6.73
	c0.62,0,1.12-0.5,1.12-1.12v-5.88h-0.94c0.27-0.29,0.44-0.67,0.44-1.1V59.71z M224,68.88c0,0.07-0.05,0.12-0.12,0.12h-6.73
	l-0.12-0.12c0.1-1.47,0.41-2.6,0.83-3.02c0.2-0.2,0.59-0.3,1.12-0.3c0.44,0,0.97,0.07,1.56,0.2c0.36,0.08,0.73,0.02,1.04-0.18
	c0.31-0.2,0.52-0.51,0.6-0.88l0.14-0.71c0.06-0.28,0.3-0.48,0.59-0.48c0.42,0,0.81-0.17,1.1-0.44V68.88z M235.08,68.99
	c0,0.07-0.05,0.12-0.12,0.12h-6.73l-0.12-0.12c0.1-1.47,0.41-2.6,0.83-3.02c0.2-0.2,0.6-0.3,1.13-0.3c0.58,0,1.32,0.12,2.13,0.35
	c0.2,0.06,0.41,0.03,0.59-0.08c0.18-0.11,0.3-0.29,0.34-0.49l0.27-1.35c0.06-0.28,0.3-0.48,0.59-0.48c0.43,0,0.81-0.17,1.1-0.44
	V68.99z M229.95,57.26c-5.04,0-8.45-4.78-8.45-11.55c0-6.8,3.51-11.47,8.45-11.47c5.08,0,8.41,4.67,8.41,11.47
	C238.36,52.48,234.96,57.26,229.95,57.26z"/>
</svg>
