<?xml version="1.0" encoding="utf-8"?>
<!-- Generator: Adobe Illustrator 25.3.1, SVG Export Plug-In . SVG Version: 6.00 Build 0)  -->
<svg version="1.0" id="レイヤー_1" xmlns="http://www.w3.org/2000/svg" xmlns:xlink="http://www.w3.org/1999/xlink" x="0px"
	 y="0px" width="223.38px" height="24.63px" viewBox="0 0 223.38 24.63" style="enable-background:new 0 0 223.38 24.63;"
	 xml:space="preserve">
<g>
	<g>
		<path d="M91.99,6.63l-5.92,16.55V6.63h-3.51l-4.07,12.13c-0.24,0.73-0.46,1.63-0.51,2.02h-0.07c-0.04-0.4-0.29-1.29-0.54-2.02
			L73.3,6.63h-3.5c0.07,1.73,0.11,3.48,0.14,5.25c0.01,1.02,0.02,2.04,0.02,3.04c-0.67,0.17-3.07,0.65-4.61-0.36
			c-0.74-0.48-1.19-1.25-1.35-2.29c0.3-0.36,0.43-0.85,0.35-1.33c-0.03-0.18-0.1-0.36-0.18-0.52l0.86-1.2l-1.45-1.04l-0.85,1.17
			c-0.35-0.09-0.64-0.06-0.85,0.11c-0.45,0.36-0.37,1.12-0.3,1.46l-1.33,1.89l1.45,1.04l0.89-1.24c0.26,0.14,0.54,0.17,0.82,0.07
			c0.02-0.01,0.04-0.01,0.06-0.02c0.23,1.07,0.74,1.87,1.56,2.4c0.85,0.55,1.89,0.72,2.83,0.72c0.89,0,1.67-0.15,2.11-0.25
			c0,2.88-0.05,5.7-0.15,8.45h2.2v-9.63c0-1.58-0.09-3.54-0.11-4.76h0.09c0.15,0.69,0.46,1.71,0.64,2.23l4.11,12.17h2.36l4.14-12.24
			c0.13-0.42,0.45-1.56,0.54-2.16h0.09c-0.04,1.24-0.15,3.51-0.15,4.72v9.68h4.65l1.8-4.94h6.88l1.76,4.94h2.63L95.22,6.63H91.99z
			 M61.56,13.03l-0.49-0.35l0.7-1c0.08,0.17,0.19,0.36,0.36,0.55L61.56,13.03z M63.48,11.97c-0.1,0.09-0.42,0.35-0.77,0
			c-0.49-0.49-0.51-0.96-0.51-0.98l-0.01-0.07c-0.08-0.33-0.1-0.86,0.07-0.99c0.04-0.02,0.08-0.04,0.14-0.04
			c0.13,0,0.33,0.06,0.55,0.17c0.46,0.23,0.74,0.58,0.81,0.98C63.83,11.39,63.72,11.73,63.48,11.97z M63.31,9.58l0.41-0.57
			l0.48,0.35l-0.42,0.58C63.65,9.8,63.49,9.69,63.31,9.58z M90.87,16.87c0.24-0.76,2.58-7.14,2.69-7.83h0.07
			c0.11,0.69,2.47,7.1,2.69,7.83H90.87z"/>
		<polygon points="112.48,6.63 99.6,6.63 99.6,8.81 104.74,8.81 104.74,23.99 107.34,23.99 107.34,8.81 112.48,8.81 		"/>
		<path d="M120,14.2l-2.6-0.85c-1.82-0.6-2.54-1.36-2.54-2.49c0-1.36,1.23-2.49,3.27-2.49c1.82,0,3.18,0.87,3.83,2.72l1.94-1.38
			c-0.93-2.38-2.87-3.47-5.85-3.47c-3.47,0-5.65,2.16-5.65,4.74c0,2.36,1.18,3.56,3.92,4.54l2.51,0.87c2.07,0.71,3,1.58,3,3.09
			c0,1.58-1.33,2.69-3.58,2.69c-2.05,0-3.83-1.47-4.56-3.56l-1.94,1.29c0.89,2.69,3.16,4.5,6.52,4.5c3.94,0,6.14-1.96,6.14-5.16
			C124.41,16.57,122.81,15.15,120,14.2z"/>
		<path d="M136.07,18.09c0,2.67-1.56,4.1-4.01,4.1c-2.47,0-3.96-1.45-3.96-4.1V6.63h-2.58v11.71c0,3.78,2.67,6.05,6.54,6.05
			c3.76,0,6.5-2.24,6.5-6.05V6.63h-2.49L136.07,18.09L136.07,18.09z"/>
		<path d="M149.49,18.76c-0.24,0.73-0.46,1.63-0.51,2.02h-0.07c-0.05-0.4-0.29-1.29-0.54-2.02L144.3,6.63h-3.5v17.36h2.2v-9.63
			c0-1.58-0.09-3.54-0.11-4.76h0.09c0.15,0.69,0.46,1.71,0.64,2.23l4.11,12.17h2.36l4.14-12.24c0.13-0.42,0.45-1.56,0.54-2.16h0.09
			c-0.04,1.24-0.15,3.51-0.15,4.72v9.68h2.36V6.63h-3.51L149.49,18.76z"/>
		<path d="M165.6,6.23c-4.8,0-7.61,4.01-7.61,9.06c0,5.11,2.8,9.1,7.61,9.1c4.83,0,7.61-3.98,7.61-9.1
			C173.21,10.26,170.43,6.23,165.6,6.23z M165.6,22.16c-3,0-5.03-2.85-5.03-6.88c0-4.05,2.09-6.83,5.03-6.83
			c3.02,0,5.01,2.78,5.01,6.83C170.6,19.31,168.58,22.16,165.6,22.16z"/>
		<path d="M185.6,6.63h-1.21V3.15c0-0.56-0.46-1.61-2.21-1.61s-2.21,1.05-2.21,1.61v3.49h-0.95V3.25c0-0.56-0.46-1.61-2.21-1.61
			c-1.74,0-2.21,1.05-2.21,1.61v3.38h-1.89v2.18h5.14v15.18h2.6V8.81h5.14L185.6,6.63L185.6,6.63z M178.18,6.63h-2.73V3.89
			c0.11,0.15,0.27,0.25,0.47,0.25c0.33,0,0.6-0.27,0.6-0.6s-0.27-0.6-0.6-0.6c-0.19,0-0.35,0.1-0.46,0.23
			c0.04-0.2,0.25-0.7,1.35-0.7c1.29,0,1.36,0.7,1.36,0.77V6.63z M183.54,6.63h-2.73V3.9c0.11,0.14,0.27,0.24,0.46,0.24
			c0.33,0,0.6-0.27,0.6-0.6s-0.27-0.6-0.6-0.6c-0.2,0-0.36,0.1-0.46,0.24V3.15c0.01-0.08,0.07-0.78,1.36-0.78
			c1.29,0,1.36,0.7,1.36,0.77V6.63L183.54,6.63z"/>
	</g>
	<path d="M197.7,17.66c2.74-1.39,4.26-4.55,4.26-8.33c0-5.03-2.78-9.06-7.61-9.06c-4.8,0-7.61,4.01-7.61,9.06
		c0,3.54,1.35,6.54,3.77,8.05v1.58c0,0.2-0.16,0.36-0.36,0.36c-0.45,0-0.85,0.32-0.93,0.77l-0.08,0.42
		c-0.01,0.06-0.05,0.11-0.1,0.14c-0.05,0.03-0.11,0.04-0.16,0.03c-1.05-0.24-1.77-0.17-2.15,0.21c-0.46,0.46-0.62,1.44-0.67,2.19
		c-0.01,0.18,0.05,0.36,0.18,0.49c0.13,0.14,0.3,0.21,0.49,0.21h4.01c0.37,0,0.67-0.3,0.67-0.67v-3.5h-0.56
		c0.16-0.17,0.26-0.4,0.26-0.65v-1.26c0.95,0.46,2.03,0.72,3.24,0.72c1.01,0,1.93-0.18,2.75-0.51v1.11c0,0.2-0.16,0.36-0.36,0.36
		c-0.45,0-0.85,0.32-0.93,0.77l-0.13,0.64c-0.71-0.19-1.83-0.36-2.36,0.17c-0.46,0.46-0.62,1.44-0.67,2.19
		c-0.01,0.18,0.05,0.36,0.18,0.49c0.13,0.14,0.3,0.21,0.49,0.21h4.01c0.37,0,0.67-0.3,0.67-0.67v-3.5h-0.56
		c0.16-0.17,0.26-0.4,0.26-0.65L197.7,17.66L197.7,17.66z M190.81,23.12c0,0.04-0.03,0.07-0.07,0.07h-4.01l-0.07-0.07
		c0.06-0.88,0.24-1.55,0.49-1.8c0.12-0.12,0.35-0.18,0.67-0.18c0.26,0,0.58,0.04,0.93,0.12c0.21,0.05,0.43,0.01,0.62-0.11
		c0.18-0.12,0.31-0.3,0.36-0.52l0.08-0.42c0.04-0.17,0.18-0.29,0.35-0.29c0.25,0,0.48-0.1,0.65-0.26L190.81,23.12L190.81,23.12z
		 M197.41,23.19c0,0.04-0.03,0.07-0.07,0.07h-4.01l-0.07-0.07c0.06-0.88,0.24-1.55,0.49-1.8c0.12-0.12,0.36-0.18,0.67-0.18
		c0.35,0,0.79,0.07,1.27,0.21c0.12,0.04,0.24,0.02,0.35-0.05s0.18-0.17,0.2-0.29l0.16-0.8c0.04-0.17,0.18-0.29,0.35-0.29
		c0.26,0,0.48-0.1,0.65-0.26L197.41,23.19L197.41,23.19z M194.35,16.21c-3,0-5.03-2.85-5.03-6.88c0-4.05,2.09-6.83,5.03-6.83
		c3.02,0,5.01,2.78,5.01,6.83C199.36,13.36,197.33,16.21,194.35,16.21z"/>
</g>
</svg>
