<?xml version="1.0" encoding="utf-8"?>
<!-- Generator: Adobe Illustrator 25.3.1, SVG Export Plug-In . SVG Version: 6.00 Build 0)  -->
<svg version="1.1" id="レイヤー_1" xmlns="http://www.w3.org/2000/svg" xmlns:xlink="http://www.w3.org/1999/xlink" x="0px"
	 y="0px" width="212.6px" height="212.6px" viewBox="0 0 212.6 212.6" style="enable-background:new 0 0 212.6 212.6;"
	 xml:space="preserve">
<style type="text/css">
	.st0{fill:#FFF5A5;}
	.st1{fill:#FFD700;}
	.st2{fill:#F59B19;}
	.st3{fill:#C3552D;}
	.st4{fill:#EB0018;}
	.st5{fill:#FFC6C6;}
</style>
<rect x="0.3" y="-32.3" class="st0" width="21.6" height="21.6"/>
<rect x="28.4" y="-32.3" class="st1" width="21.6" height="21.6"/>
<rect x="56.4" y="-32.3" class="st2" width="21.6" height="21.6"/>
<rect x="84.5" y="-32.3" class="st3" width="21.6" height="21.6"/>
<rect x="112.4" y="-32.3" class="st4" width="21.6" height="21.6"/>
<rect x="140.6" y="-32.3" class="st5" width="21.6" height="21.6"/>
<path class="st1" d="M47.5,60.1c0,0-0.1,0-0.3,0c-0.8,0-2.9,0.1-4.5,1.4c-0.5,0.4-0.8,0.9-0.8,1.3c0,0.7,0.5,1.3,0.6,1.3
	c0,0.1,0.8,1,2,1.6c1.4,0.8,4.4,0.9,5.6-0.2c0.9-0.8,1.1-2.2,1.1-3.3c0,0-0.1,0-0.1,0l0-1h0C50.9,60.7,49.1,60.2,47.5,60.1z"/>
<path class="st0" d="M97.7,141.9c1.9-1.3,2.4-9,2.8-15.8c0.2-2.9,0.4-5.9,0.7-8.5c0.7-5.9-1.2-15.2-5.3-26.2
	C88,95.3,76.8,99.1,75,99.3c-1,1.9-2.2,3.8-3.8,5.9l-0.8-0.6c8.9-12,7.8-20.6,6.2-24.8l-0.1-0.1c0,0,0-0.1,0-0.1
	c0-0.1-0.1-0.1-0.1-0.2c-0.7-1.8-1.5-2.7-1.5-2.7l0.8-0.7c0,0,0.7,0.9,1.5,2.5c1.8-3,3.5-5.4,5.1-7.3c-4.4-2-10.1-3-16.1-4
	c-1.3-0.2-2.6-0.4-3.9-0.7c-1.6-0.3-3.2-1.2-4.9-2.1c-1.7-1-3.5-2-5.3-2.3c0,1.3-0.2,2.9-1.4,4c-0.8,0.7-2.2,1.1-3.5,1.1
	c-1.2,0-2.4-0.3-3.2-0.8c-1.3-0.7-2.2-1.8-2.2-1.8l0,0c0,0-0.7-0.7-0.8-1.6c-13,2.8-21.2,7.2-23.8,8.8c1,0.6,1.7,1.4,2,2.5
	c0.4,1.3,0.2,3.2-0.8,4.4c-1.1,1.4-2.6,1.2-4.1,2.8c-1.1,1.2-1.5,2.7-1.6,3.6c-0.3,3.3,3,4.8,5.3,8.5c2.5,4.1,1,6.5,2,13.4
	c0,0,1,6.4,4.9,14.2c9,18.1,39.9,22.1,44.9,22.7c14.4,1.6,16.7-1.7,24,0C94.6,143.7,95.9,143.1,97.7,141.9z"/>
<path class="st4" d="M184.2,74.4c-2-7.2-5.8-14.2-5.1-15.3c0.6-0.9,2.8-3.6,2-6.1c-0.5-1.4-1.8-2.3-3.2-3.2
	c-2.8-1.8-4.5-1.8-5.7-2.4c-4.8-2.5-0.3-15.7-2.4-27.9c-0.8-4.4-2.6-10.1-7.5-16.5c-0.6-0.7-1.4-0.5-2.4-0.4
	c-11.9,1.2-13,5.2-16.4,10.2c-5.3,7.9-5.4,19.2-11,17.7c-6.7-1.8-4.3-3.5-15.1-6.7c-18.7-5.5-36.6-2.7-47.3-1.4
	c-2.5,0.3-12.7,0.8-23,5.6c-4.3,2-12.5,7.5-15.4,13.7c-1.9,4.1-8,15.1-13.1,16.8c-2.8,0.9-5.1-0.6-7.7,1.2C9,61,7.4,64.3,8.3,66.8
	c1,2.9,5,3.4,7.9,4.7c1.9-1.2,10.6-6.3,25-9.3c0.2-0.5,0.5-1,1.1-1.5c2.2-1.8,5.3-1.6,5.5-1.6c1,0.1,4.1,0.5,4.4,1.9
	c0,0.1,0,0.2,0,0.2c2.1,0.2,4.1,1.3,5.9,2.4c1.6,0.9,3.1,1.8,4.5,2c1.3,0.2,2.6,0.4,3.9,0.7c6.2,1,12,2,16.6,4.2
	c3-3.3,5.5-4.6,7.6-3.8c4.2,1.5,6.5,2.7,8.3,5.2l0,0c0,0,0,0,0,0c1.8,2.4,2.9,6.1,4.8,12.4c0.2,0.7,0,1.5-0.8,2.3
	c-1.1,1.3-3.4,2.8-6.3,4.3c4.2,11.2,6.1,20.7,5.4,26.8c-0.3,2.5-0.5,5.5-0.6,8.4c-0.5,7.7-0.9,15-3.2,16.5c-1.2,0.8-2.2,1.4-3,1.8
	c0.4,0.1,0.8,0.2,1.3,0.4c4.9,1.7,12,5.4,29.6,29.6c16.6,22.8,21.5,34.8,25.9,33.6c5.1-1.3,4.9-18.8,4.9-22.7
	c-0.3-22.8-9.7-32.1-4.1-43.7c2.2-4.6,6-3.2,13.5-10.8c8.1-8.1,11.7-20.5,17.4-40C184.1,89.7,186.2,81.6,184.2,74.4z"/>
<path class="st1" d="M83.2,71.8c-1.7,2-3.6,4.7-5.6,8c1.3,3.6,2.1,9.9-2.1,18.4c4-1,23.7-8,26.9-12.4c0.3-0.5,0.5-0.9,0.4-1.2
	c-0.3-1-0.6-1.9-0.8-2.8c-1.4,2.3-6.1,8.4-20,12.3l-0.3-1c16.7-4.7,19.8-12.6,19.8-12.7l0.1,0c-1.1-3.4-2-5.7-3.1-7.4
	c-0.6,1.5-1.8,4.1-3.8,6.8c-3.8,5.3-8.5,8.3-13.6,8.7l-0.1-1C91.5,87,96.8,74.8,97.8,72.1c-1.2-1.4-2.6-2.4-4.6-3.3
	c-0.2,2.5-1.6,10.6-11.9,13.2l-0.2-1c10.4-2.6,11.2-10.9,11.2-12.7c-0.6-0.2-1.3-0.5-2-0.8c-1.6-0.6-3.8,0.6-6.4,3.3c0,0,0,0,0,0
	l-0.5,0.9C83.4,71.9,83.3,71.8,83.2,71.8z"/>
</svg>
