<svg xmlns="http://www.w3.org/2000/svg" width="248.52" height="30.1" viewBox="0 0 248.52 30.1"><circle cx="170.98" cy="15.05" r="15.05"/><circle cx="233.47" cy="15.05" r="15.05"/><polygon points="48.63 0 31.25 30.1 66 30.1 48.63 0"/><path d="M93.45,0h30.1a0,0,0,0,1,0,0V15a15,15,0,0,1-15,15h0a15,15,0,0,1-15-15V0A0,0,0,0,1,93.45,0Z"/><polygon points="141.81 0 139.74 3.58 137.67 0 124.69 0 124.69 30.1 131.57 30.1 131.57 26.51 133.64 30.1 145.18 30.1 147.25 26.51 147.43 30.1 154.79 30.1 154.79 0 141.81 0"/><polygon points="17.12 0 15.05 3.58 12.98 0 0 0 0 30.1 6.88 30.1 6.88 26.51 8.95 30.1 20.48 30.1 22.55 26.51 22.74 30.1 30.1 30.1 30.1 0 17.12 0"/><polygon points="187.18 0 187.18 13.76 192.39 13.76 192.39 30.1 212.06 30.1 212.06 13.76 217.28 13.76 217.28 0 187.18 0"/><polygon points="62.21 0 62.21 13.76 67.42 13.76 67.42 30.1 87.09 30.1 87.09 13.76 92.3 13.76 92.3 0 62.21 0"/></svg>